# xmcd
#
# Track frame offsets: 
#        150
#        17215
#        46425
#        65160
#        87255
#        108805
#        129260
#        143382
#        162290
#        176862
#        192427
#        209227
#        228400
#
# Disc length: 3402 seconds
#
# Revision: 7
# Processed by: cddbd v1.5.2PL0 Copyright (c) Steve Scherf et al.
# Submitted via: ExactAudioCopy v0.99pb4
#
DISCID=b90d480d
DTITLE=Lyle Lovett - The Road To Ensenada
DYEAR=1996
DGENRE=Country
TTITLE0=Don't Touch My Hat
TTITLE1=Her First Mistake
TTITLE2=Fiona
TTITLE3=That's Right (You're Not From Texas)
TTITLE4=Who Loves You Better
TTITLE5=Private Conversation
TTITLE6=Promises
TTITLE7=It Ought To Be Easier
TTITLE8=I Can't Love You Anymore
TTITLE9=Long Tall Texan
TTITLE10=Christmas Morning
TTITLE11=The Road To Ensenada
TTITLE12=The Girl In The Corner
EXTD=
EXTT0=
EXTT1=
EXTT2=
EXTT3=
EXTT4=
EXTT5=
EXTT6=
EXTT7=
EXTT8=
EXTT9=
EXTT10=
EXTT11=
EXTT12=
PLAYORDER=
